<svg width="130" height="74" viewBox="0 0 130 74" fill="none" xmlns="http://www.w3.org/2000/svg">
<path d="M118.179 38.9271C118.179 48.6216 108.413 56.6235 96.1701 56.6235C83.9272 56.6235 74.1613 48.6216 74.1613 38.9271C74.1613 29.2326 83.9272 21.2306 96.1701 21.2306C108.413 21.2306 118.179 29.2326 118.179 38.9271Z" stroke="#BFBFBF" stroke-width="0.836257"/>
<path d="M123.616 37.8048C123.616 45.5119 119.541 52.5182 112.896 57.611C106.25 62.7041 97.0514 65.8662 86.8736 65.8662C76.6958 65.8662 67.4969 62.7041 60.8514 57.611C54.2062 52.5182 50.131 45.5119 50.131 37.8048C50.131 30.0976 54.2062 23.0913 60.8514 17.9985C67.4969 12.9054 76.6958 9.74332 86.8736 9.74332C97.0514 9.74332 106.25 12.9054 112.896 17.9985C119.541 23.0913 123.616 30.0976 123.616 37.8048Z" stroke="#BFBFBF" stroke-width="0.836257"/>
<path d="M129.582 37C129.582 47.0421 123.728 56.1774 114.175 62.8196C104.623 69.4609 91.4045 73.5819 76.7839 73.5819C62.1632 73.5819 48.9448 69.4609 39.3928 62.8196C29.8394 56.1774 23.9855 47.0421 23.9855 37C23.9855 26.9579 29.8394 17.8226 39.3928 11.1804C48.9448 4.53914 62.1632 0.418128 76.7839 0.418128C91.4045 0.418128 104.623 4.53914 114.175 11.1804C123.728 17.8226 129.582 26.9579 129.582 37Z" stroke="#BFBFBF" stroke-width="0.836257"/>
<path d="M0 58.583H7.60236" stroke="#3B40B2" stroke-width="1.91396"/>
<path d="M3.80176 58.5833L30.7901 18.5M30.7901 18.5L44.2455 47.0208M30.7901 18.5L24.3281 20.8125M44.2455 47.0208L53.9396 24.5731M44.2455 47.0208L36.1118 43.9375M53.9396 24.5731L68.0417 55.1146M53.9396 24.5731L47.974 27.3454M68.0417 55.1146L76.0241 31.6042M68.0417 55.1146L61.5797 51.6458M76.0241 31.6042L83.2464 47.0208M76.0241 31.6042L70.7025 34.6875M83.2464 47.0208L88.568 34.6875L92.3692 50.4896M83.2464 47.0208L78.3048 44.7083" stroke="#3B40B2" stroke-width="1.64053"/>
<path d="M113.215 40.4687C113.215 45.7456 108.835 50.0547 103.392 50.0547C97.9497 50.0547 93.5693 45.7456 93.5693 40.4687C93.5693 35.1919 97.9497 30.8828 103.392 30.8828C108.835 30.8828 113.215 35.1919 113.215 40.4687Z" stroke="#3B40B2" stroke-width="1.64053"/>
</svg>
